<svg xmlns="http://www.w3.org/2000/svg" xmlns:xlink="http://www.w3.org/1999/xlink" width="1920" zoomAndPan="magnify" viewBox="0 0 1440 809.999993" height="1080" preserveAspectRatio="xMidYMid meet" version="1.2"><g id="78ecd2b370"><path style=" stroke:none;fill-rule:nonzero;fill:#38b6ff;fill-opacity:1;" d="M 874.921875 429.957031 C 872.804688 412.8125 859.742188 399.300781 845.039062 391.570312 C 836.28125 386.964844 826.699219 383.734375 816.898438 381.378906 C 832.300781 365.457031 856.464844 356.308594 876.441406 349.335938 C 881.921875 347.417969 875.308594 339.847656 870.957031 341.367188 C 848.167969 349.324219 821.1875 359.839844 805.371094 378.980469 C 800.660156 378.148438 795.953125 377.460938 791.320312 376.867188 C 757.855469 372.5625 723.527344 375.457031 691.167969 384.964844 C 676.1875 389.367188 661.621094 395.191406 647.742188 402.351562 C 643.269531 404.660156 638.972656 407.28125 634.691406 409.929688 C 630.621094 412.445312 625.738281 416.652344 621.132812 417.878906 C 621.785156 415.316406 623.609375 412.652344 624.753906 410.207031 C 626.546875 406.375 628.230469 402.476562 629.570312 398.460938 C 631.132812 393.78125 634.761719 382.683594 627.667969 380.546875 C 619.382812 378.050781 611.234375 386.722656 605.886719 391.816406 C 594.160156 402.980469 584.023438 415.71875 574.746094 428.953125 C 570.214844 435.417969 565.480469 441.976562 561.585938 448.84375 C 559.339844 452.800781 558.066406 460.304688 565.132812 459.125 C 587.207031 455.449219 610.597656 453.667969 632.882812 458.210938 C 636.8125 459.011719 645.648438 462.109375 646.988281 456 C 648.097656 450.949219 640.851562 443.253906 637.992188 440.585938 C 632.808594 435.75 626.371094 432.332031 619.816406 429.75 C 621.636719 428.765625 623.46875 427.78125 625.285156 426.796875 C 638.15625 419.835938 650.871094 411.910156 664.117188 405.386719 C 693.851562 390.746094 727.097656 383.789062 760.144531 383.300781 C 760.308594 383.296875 760.472656 383.296875 760.636719 383.292969 C 773.265625 383.132812 785.90625 383.992188 798.390625 385.90625 C 798.996094 385.996094 799.597656 386.09375 800.199219 386.191406 C 798.257812 385.878906 793.992188 400.457031 793.550781 402.242188 C 787.816406 425.40625 800.816406 452.121094 821.519531 463.378906 C 833.976562 470.152344 848.9375 470.085938 860.628906 461.757812 C 870.753906 454.546875 876.460938 442.371094 874.921875 429.957031 Z M 824.242188 456.101562 C 810.507812 447.535156 800.363281 430.777344 801.613281 414.40625 C 802.402344 404.15625 805.933594 395.53125 811.222656 388.15625 C 824.140625 390.71875 837.261719 394.445312 847.988281 401.832031 C 861.5 411.113281 870.648438 428.722656 862.632812 444.601562 C 855.570312 458.574219 837.722656 464.503906 824.242188 456.101562 Z M 824.242188 456.101562 "/></g></svg>